<svg width="427" height="402" viewBox="0 0 427 402" fill="none" xmlns="http://www.w3.org/2000/svg">
<g clip-path="url(#clip0_9:153)">
<path d="M310.004 228.119V339.168L328.583 369.441L329.997 371.743H403.305L404.786 228.119H310.004Z" fill="#E6E6E6"/>
<path opacity="0.1" d="M310.004 228.119V339.168L328.583 369.441L329.723 228.119H310.004Z" fill="black"/>
<path d="M133.029 225.157V336.207L114.45 366.48L113.036 368.782H39.7287L38.2475 225.157H133.029Z" fill="#E6E6E6"/>
<path opacity="0.1" d="M133.029 225.157V336.207L114.45 366.48L113.31 225.157H133.029Z" fill="black"/>
<path d="M427 222.937V229.599H28.6212V219.975L65.6452 200.726H394.419L427 222.937Z" fill="#E6E6E6"/>
<path opacity="0.1" d="M427 222.937V229.599H28.6212V219.975L427 222.937Z" fill="black"/>
<path d="M85.6386 256.251H67.8667L60.4619 251.069H93.7837L85.6386 256.251Z" fill="#3F3D56"/>
<path d="M85.6386 277.721H67.8667L60.4619 272.539H93.7837L85.6386 277.721Z" fill="#3F3D56"/>
<path d="M85.6386 308.075H67.8667L60.4619 302.892H93.7837L85.6386 308.075Z" fill="#3F3D56"/>
<path d="M85.6386 338.428H67.8667L60.4619 333.246H93.7837L85.6386 338.428Z" fill="#3F3D56"/>
<path d="M357.395 259.212H375.167L382.571 254.03H349.25L357.395 259.212Z" fill="#3F3D56"/>
<path d="M357.395 280.682H375.167L382.571 275.5H349.25L357.395 280.682Z" fill="#3F3D56"/>
<path d="M357.395 311.036H375.167L382.571 305.854H349.25L357.395 311.036Z" fill="#3F3D56"/>
<path d="M357.395 341.389H375.167L382.571 336.207H349.25L357.395 341.389Z" fill="#3F3D56"/>
<path d="M369.497 72.308H219.885C219.142 72.3079 218.406 72.4541 217.72 72.7384C217.033 73.0227 216.409 73.4394 215.884 73.9647C215.358 74.49 214.942 75.1137 214.657 75.8C214.373 76.4864 214.227 77.2221 214.227 77.965V178.727C214.227 179.47 214.373 180.206 214.657 180.892C214.942 181.579 215.358 182.202 215.884 182.728C216.409 183.253 217.033 183.67 217.72 183.954C218.406 184.238 219.142 184.384 219.885 184.384H276.679L274.551 197.967C274.551 197.967 262.391 204.425 270.941 204.615C279.491 204.805 319.771 204.615 319.771 204.615C319.771 204.615 327.561 204.615 315.211 197.777L313.209 184.384H369.497C370.24 184.384 370.976 184.238 371.662 183.954C372.349 183.67 372.973 183.253 373.498 182.728C374.023 182.202 374.44 181.579 374.725 180.892C375.009 180.206 375.155 179.47 375.155 178.727V77.965C375.155 77.2221 375.009 76.4864 374.725 75.8C374.44 75.1137 374.023 74.49 373.498 73.9647C372.973 73.4394 372.349 73.0227 371.662 72.7384C370.976 72.4541 370.24 72.3079 369.497 72.308V72.308Z" fill="#3F3D56"/>
<path d="M369.74 78.2917H219.642V162.254H369.74V78.2917Z" fill="#F2F2F2"/>
<path d="M294.691 76.5821C295.216 76.5821 295.641 76.1569 295.641 75.6323C295.641 75.1077 295.216 74.6825 294.691 74.6825C294.166 74.6825 293.741 75.1077 293.741 75.6323C293.741 76.1569 294.166 76.5821 294.691 76.5821Z" fill="#F2F2F2"/>
<path d="M294.691 180.3C296.685 180.3 298.301 178.684 298.301 176.691C298.301 174.698 296.685 173.082 294.691 173.082C292.697 173.082 291.081 174.698 291.081 176.691C291.081 178.684 292.697 180.3 294.691 180.3Z" fill="#F2F2F2"/>
<path d="M289.066 214.873V216.773H186.847V215.253L186.987 214.873L189.507 208.034H286.976L289.066 214.873Z" fill="#3F3D56"/>
<path d="M328.403 213.013C328.216 213.809 327.513 214.649 325.925 215.443C320.225 218.292 308.635 214.683 308.635 214.683C308.635 214.683 299.705 213.163 299.705 209.174C299.956 209.003 300.218 208.847 300.488 208.709C302.885 207.441 310.83 204.313 324.919 208.841C325.957 209.167 326.884 209.774 327.597 210.596C327.913 210.906 328.151 211.287 328.291 211.708C328.431 212.128 328.469 212.575 328.403 213.013Z" fill="#3F3D56"/>
<path opacity="0.1" d="M328.403 213.013C321.426 215.686 315.207 215.885 308.825 211.454C306.412 209.67 303.489 208.708 300.488 208.709C302.885 207.441 310.83 204.313 324.919 208.841C325.957 209.167 326.884 209.774 327.597 210.596C327.913 210.906 328.151 211.287 328.291 211.708C328.431 212.128 328.469 212.575 328.403 213.013Z" fill="black"/>
<path d="M319.655 211.454C321.019 211.454 322.125 211.114 322.125 210.694C322.125 210.274 321.019 209.934 319.655 209.934C318.291 209.934 317.185 210.274 317.185 210.694C317.185 211.114 318.291 211.454 319.655 211.454Z" fill="#F2F2F2"/>
<path opacity="0.1" d="M289.066 214.873V216.773H186.847V215.253L186.987 214.873H289.066Z" fill="black"/>
<path d="M56.8351 7.27088e-05C55.7977 -0.085086 54.7589 0.146927 53.8564 0.665367C52.9702 1.27213 52.4116 2.33513 51.8415 3.32431C49.6616 7.15149 46.7105 10.4843 43.1751 13.1117C40.6 14.9978 37.3261 17.3495 37.7667 20.827C37.9991 21.9754 38.4235 23.0764 39.0219 24.0838C41.3974 28.8783 47.88 32.5834 47.2424 38.0543C49.6025 34.1039 46.4456 32.1505 48.8058 28.2001C49.9298 26.3188 51.8823 24.1952 53.5793 25.3767C54.1475 25.7723 54.5206 26.4818 55.1123 26.8289C56.5239 27.6571 58.0258 26.0737 59.2754 24.9522C63.5844 21.0848 69.7122 22.0979 75.0743 23.3029C77.6058 23.8718 80.3863 24.6182 81.8827 27.0371C83.8503 30.2176 80.0134 33.6525 79.044 37.2483C78.9648 37.5546 78.9611 37.8756 79.0331 38.1838C79.1051 38.492 79.2506 38.7781 79.4573 39.0177C79.664 39.2574 79.9257 39.4434 80.22 39.5599C80.5143 39.6764 80.8324 39.7199 81.1472 39.6867C82.7561 39.528 84.662 39.398 84.7573 38.6921C86.7815 38.7641 89.2619 38.5349 90.1292 36.4275C90.3943 35.5937 90.5344 34.7252 90.545 33.8504C90.8634 30.3104 92.3661 27.0808 93.3616 23.7116C94.3572 20.3423 94.79 16.3938 93.11 13.4066C92.5104 12.4127 91.7689 11.5117 90.9089 10.732C81.3751 1.5076 68.8402 -0.0136198 56.8351 7.27088e-05Z" fill="#2F2E41"/>
<path d="M49.3158 44.9644C49.3158 44.9644 51.3892 62.2396 43.7866 63.6216C36.184 65.0036 50.6981 88.498 50.6981 88.498L85.2554 92.644L76.9617 65.0036C76.9617 65.0036 71.4325 62.9306 74.8882 49.1104C78.344 35.2902 49.3158 44.9644 49.3158 44.9644Z" fill="#FFB8B8"/>
<path d="M28.2358 341.753L31.0007 379.758H45.5142L41.3678 341.753H28.2358Z" fill="#FFB8B8"/>
<path d="M134.672 269.888L136.746 301.674L152.642 294.764L146.422 268.506L134.672 269.888Z" fill="#FFB8B8"/>
<path d="M17.8686 196.641C17.8686 196.641 18.5598 236.719 22.7067 249.849C26.8536 262.978 26.1624 263.669 25.4713 265.742C24.7801 267.815 24.089 266.433 24.089 269.888C24.089 273.343 22.7067 327.933 24.089 332.77C25.4713 337.607 19.9421 345.899 24.089 346.59C28.2358 347.281 47.5879 346.59 48.2791 342.444C48.9702 338.298 42.7499 336.916 45.5145 334.152C48.2791 331.388 52.426 274.725 52.426 274.725L62.102 235.337L80.0718 214.607H118.085L129.834 260.214C129.834 260.214 124.996 273.343 128.452 273.343C131.908 273.343 152.642 277.489 152.642 262.287C152.642 247.085 145.731 202.169 144.348 200.787C142.966 199.405 145.04 194.568 142.966 192.495C140.893 190.422 116.703 175.911 107.718 173.147C98.7328 170.383 86.1285 167.093 86.1285 167.093L17.8686 196.641Z" fill="#2F2E41"/>
<path d="M152.642 289.236C152.642 289.236 142.275 285.781 137.437 296.146C132.599 306.511 134.672 309.275 134.672 309.275C134.672 309.275 150.569 314.803 153.333 312.039C154.536 310.837 158.356 310.419 162.287 310.331C168.275 310.196 169.868 301.727 164.213 299.755C164.044 299.696 163.873 299.645 163.701 299.601C158.171 298.219 152.642 289.236 152.642 289.236Z" fill="#2F2E41"/>
<path d="M64.8666 56.3661C76.3179 56.3661 85.601 47.0848 85.601 35.6358C85.601 24.1868 76.3179 14.9055 64.8666 14.9055C53.4153 14.9055 44.1322 24.1868 44.1322 35.6358C44.1322 47.0848 53.4153 56.3661 64.8666 56.3661Z" fill="#FFB8B8"/>
<path d="M37.9119 72.2593C37.9119 72.2593 71.7781 79.1694 80.0718 68.1132C88.3656 57.0571 91.8213 99.2086 91.8213 99.2086L95.9682 143.433L89.7479 167.619C89.7479 167.619 57.264 193.877 46.8968 195.95C36.5296 198.023 20.6332 199.405 20.6332 199.405C20.6332 199.405 25.4713 122.703 25.4713 121.321C25.4713 119.939 37.9119 72.2593 37.9119 72.2593Z" fill="#EA6D50"/>
<path d="M48.2114 59.2996C48.2114 59.2996 40.6765 54.984 38.603 59.1301C36.5296 63.2761 17.1775 73.6412 15.104 73.6412C13.0306 73.6412 19.2509 130.995 16.4863 137.905C13.7217 144.815 0.589953 195.259 8.19257 199.405C15.7952 203.551 10.266 195.259 17.8686 205.624C25.4712 215.989 62.7931 215.989 64.8666 211.843C66.94 207.697 48.2791 176.602 51.7348 147.579C55.1905 118.557 60.7197 78.4783 55.8817 72.9502C51.0437 67.4222 48.2114 59.2996 48.2114 59.2996Z" fill="#2F2E41"/>
<path d="M73.1604 63.9671L74.1231 60.6548C74.1231 60.6548 102.88 70.1862 104.262 76.4053C105.644 82.6244 104.953 126.158 100.115 129.613C95.2771 133.068 88.3656 138.596 93.2036 146.888C98.0417 155.18 103.571 164.163 107.718 164.854C111.865 165.545 119.467 170.383 117.394 175.22C115.32 180.057 90.439 171.074 90.439 171.074C90.439 171.074 73.8515 158.635 74.5427 139.287C75.2338 119.939 73.1604 63.9671 73.1604 63.9671Z" fill="#2F2E41"/>
<path d="M97.3505 145.506L80.763 176.602C80.763 176.602 56.5728 201.478 70.3958 204.242C84.2187 207.006 91.8213 181.439 91.8213 181.439L109.791 155.871L97.3505 145.506Z" fill="#FFB8B8"/>
<path d="M57.8452 5.42412C57.0094 5.36221 56.1723 5.52454 55.4203 5.89435C54.7404 6.39082 54.18 7.0329 53.7801 7.77367C51.9367 10.5461 49.5336 12.9024 46.7253 14.6913C44.6291 16.0244 41.9641 17.6866 42.3227 20.1444C42.5174 20.9685 42.8639 21.7491 43.3445 22.4464C45.285 25.8693 46.0575 29.8311 45.5451 33.7321L51.309 25.3557C52.224 24.0261 53.8134 22.5251 55.1949 23.3601C55.6574 23.6397 55.9611 24.1412 56.4427 24.3865C57.5919 24.9719 58.8145 23.8528 59.8317 23.0601C63.3394 20.3267 68.3277 21.0428 72.6927 21.8944C74.7534 22.2965 77.0168 22.824 78.235 24.5337C80.2594 27.375 78.1456 31.4803 79.327 34.7626C79.6578 34.5311 79.9386 34.2355 80.153 33.8935C80.3674 33.5515 80.5109 33.1699 80.575 32.7713C82.2228 32.8223 84.242 32.6603 84.948 31.1708C85.1628 30.587 85.2772 29.9712 85.2865 29.3493C85.5456 26.8472 86.7689 24.5646 87.5793 22.1833C88.3897 19.8019 88.7421 17.0111 87.3745 14.8998C86.8742 14.1844 86.2703 13.5473 85.5827 13.0094C77.8218 6.48963 67.6179 5.41444 57.8452 5.42412Z" fill="#2F2E41"/>
<path d="M97.3505 73.6412L103.79 75.3502C103.79 75.3502 118.776 113.72 115.32 139.978C111.865 166.236 109.791 160.708 109.791 160.708C109.791 160.708 104.262 148.27 91.8213 151.034L97.3505 73.6412Z" fill="#2F2E41"/>
<path d="M29.1934 374.736C27.5267 377 27.8609 380.237 26.3845 382.63C25.1048 384.704 22.693 385.791 21.0923 387.629C20.5816 388.24 20.1262 388.895 19.7317 389.586C18.2468 392.073 17.0399 395.26 18.5023 397.76C19.6787 399.771 22.1515 400.557 24.4193 401.093C27.2857 401.77 30.2638 402.312 33.1633 401.794C36.0628 401.277 38.8965 399.502 39.9303 396.744C40.1335 396.051 40.375 395.37 40.6538 394.703C42.2253 391.61 47.1547 391.576 48.763 388.502C49.8886 386.351 48.8539 383.75 47.8197 381.553L44.6609 374.844C43.6126 372.617 39.3632 373.898 37.1478 373.364C34.2585 372.668 31.2719 371.902 29.1934 374.736Z" fill="#2F2E41"/>
<path d="M6.11913 159.326L35.1473 204.242C35.1473 204.242 53.1171 227.045 58.6463 216.68C64.1754 206.315 39.2942 189.04 39.2942 189.04L20.6332 154.489L6.11913 159.326Z" fill="#FFB8B8"/>
<path d="M20.6332 75.0233L15.104 73.6412C15.104 73.6412 4.04568 77.0963 1.2811 91.6075C-1.48349 106.119 0.589947 164.163 4.04568 164.854C7.50141 165.545 21.1135 154.748 23.2924 157.037C25.4712 159.326 18.5597 147.579 20.6332 141.36C22.7066 135.141 20.6332 75.0233 20.6332 75.0233Z" fill="#2F2E41"/>
<path d="M280.484 105.868H262.621V110.167H280.484V105.868Z" fill="#7963FF"/>
<path d="M342.345 105.868H336.059V110.167H342.345V105.868Z" fill="#6F6F6F"/>
<path d="M354.915 105.868H348.63V110.167H354.915V105.868Z" fill="#63FF7C"/>
<path d="M329.443 105.868H286.77V110.167H329.443V105.868Z" fill="#FF6363"/>
<path d="M257.99 133.65H240.126V137.949H257.99V133.65Z" fill="#4EDBE4"/>
<path d="M319.85 133.65H313.565V137.949H319.85V133.65Z" fill="#6F6F6F"/>
<path d="M332.421 133.65H326.135V137.949H332.421V133.65Z" fill="#63FF7C"/>
<path d="M306.949 133.65H264.275V137.949H306.949V133.65Z" fill="#FF6363"/>
<path d="M331.759 115.459H313.895V119.759H331.759V115.459Z" fill="#4EDBE4"/>
<path d="M355.908 115.459H338.044V119.759H355.908V115.459Z" fill="#6C63FF"/>
<path d="M246.411 115.459H240.126V119.759H246.411V115.459Z" fill="#63FFAB"/>
<path d="M258.982 115.459H252.697V119.759H258.982V115.459Z" fill="#63FF7C"/>
<path d="M307.941 115.459H265.267V119.759H307.941V115.459Z" fill="#FF6363"/>
<path d="M294.709 124.72H276.845V129.02H294.709V124.72Z" fill="#6C63FF"/>
<path d="M270.56 124.72H252.697V129.02H270.56V124.72Z" fill="#4EDBE4"/>
<path d="M246.411 124.72H240.126V129.02H246.411V124.72Z" fill="#6F6F6F"/>
<path d="M355.908 124.72H349.622V129.02H355.908V124.72Z" fill="#6F6F6F"/>
<path d="M343.337 124.72H300.663V129.02H343.337V124.72Z" fill="#FF6363"/>
</g>
<defs>
<clipPath id="clip0_9:153">
<rect width="427" height="402" fill="white"/>
</clipPath>
</defs>
</svg>
